# xmcd
# 
# Track frame offsets:
#     150
#     13352
#     24710
#     39640
#     50590
#     63287
#     76800
#     89095
#     100800
#     113127
#     123715
#     135577
# 
# Disc length: 2016
# 
# Revision: 2
# Processed by: cddbd v1.5.2PL0 Copyright (c) Steve Scherf et al.
# Submitted via: BonkEnc v1.0.0
# 
DISCID=a507de0c
DTITLE=Elmore James - Dust My Broom
DYEAR=1994
DGENRE=Blues
TTITLE0=Dust My Broom
TTITLE1=Look On Yonder Wall
TTITLE2=It Hurts Me Too
TTITLE3=Coming Home
TTITLE4=The Sky Is Crying
TTITLE5=Standing At Crossroads
TTITLE6=Hand In Hand
TTITLE7=Rollin' And Tumblin'
TTITLE8=Mean Mistreatin' Mama
TTITLE9=I Done Somebody Wrong
TTITLE10=Pickin' The Blues
TTITLE11=I Believe
EXTD=Compilation
EXTT0=
EXTT1=
EXTT2=
EXTT3=
EXTT4=
EXTT5=
EXTT6=
EXTT7=
EXTT8=
EXTT9=
EXTT10=
EXTT11=
PLAYORDER=
